<?xml version="1.0" standalone="no"?>
<!DOCTYPE svg PUBLIC "-//W3C//DTD SVG 20010904//EN"
 "http://www.w3.org/TR/2001/REC-SVG-20010904/DTD/svg10.dtd">
<svg version="1.0" xmlns="http://www.w3.org/2000/svg"
 width="767.000000pt" height="767.000000pt" viewBox="0 0 767.000000 767.000000"
 preserveAspectRatio="xMidYMid meet">
<metadata>
Created by potrace 1.14, written by Peter Selinger 2001-2017
</metadata>
<g transform="translate(0.000000,767.000000) scale(0.100000,-0.100000)"
fill="#000000" stroke="none">
<path d="M1436 7655 c-20 -20 -44 -76 -52 -118 -2 -17 -6 -33 -8 -36 -8 -12
-20 -94 -33 -221 -10 -91 -9 -581 1 -700 12 -157 23 -245 41 -360 8 -47 16
-101 19 -120 11 -66 17 -93 26 -110 5 -10 7 -20 3 -23 -3 -4 -1 -19 5 -34 6
-15 14 -40 16 -55 3 -15 7 -31 10 -36 3 -5 7 -19 9 -33 7 -38 57 -177 87 -244
15 -33 47 -105 70 -160 104 -240 293 -590 426 -789 21 -32 44 -66 49 -75 6 -9
12 -18 15 -21 3 -3 37 -48 76 -100 39 -52 103 -133 142 -180 l70 -84 -24 -23
c-14 -13 -27 -23 -29 -23 -2 0 -16 -12 -32 -27 -16 -16 -58 -56 -94 -89 -36
-34 -94 -95 -130 -135 -35 -41 -67 -75 -71 -77 -5 -2 -8 -10 -8 -18 0 -8 -4
-14 -8 -14 -5 0 -31 -33 -58 -72 -27 -40 -52 -77 -57 -83 -123 -164 -288 -559
-330 -795 -33 -177 -36 -202 -43 -325 -9 -151 -5 -305 10 -430 11 -86 18 -132
22 -147 3 -10 8 -30 11 -45 3 -16 6 -32 7 -38 1 -5 6 -26 10 -45 33 -148 184
-529 222 -561 8 -6 14 -17 14 -23 0 -24 148 -241 240 -351 31 -38 245 -252
285 -285 17 -14 64 -50 105 -80 65 -49 95 -70 144 -102 107 -72 412 -219 481
-232 6 -1 15 -5 21 -8 6 -4 21 -9 35 -12 13 -2 49 -12 79 -22 30 -9 60 -17 65
-19 6 -1 21 -4 35 -8 56 -12 137 -28 175 -32 22 -3 47 -7 55 -10 28 -7 235
-18 330 -16 140 3 229 11 345 31 33 6 73 13 89 15 15 2 36 7 46 10 10 3 27 7
37 9 52 11 200 58 293 95 230 90 404 192 627 366 72 57 254 240 324 327 104
131 200 276 253 383 11 22 24 43 29 46 5 3 8 9 7 13 0 3 6 21 14 39 59 130
121 298 132 357 3 14 11 48 19 75 8 28 21 91 29 140 9 50 18 106 22 125 10 55
13 469 4 525 -4 28 -10 73 -14 100 -3 28 -8 61 -11 75 -3 14 -8 40 -11 59 -3
19 -10 46 -16 60 -5 14 -9 28 -9 31 1 14 -37 149 -57 200 -3 8 -6 18 -7 23 -2
4 -4 9 -5 12 -1 3 -3 8 -5 13 -2 8 -12 33 -55 134 -62 145 -181 341 -300 494
-64 81 -271 293 -347 354 l-42 33 19 26 c10 14 33 42 51 61 73 78 225 287 367
505 7 11 15 28 18 38 4 9 10 17 14 17 4 0 13 15 21 33 7 17 15 34 18 37 7 6
15 20 82 146 72 137 133 262 150 307 7 20 16 37 20 37 4 0 11 14 14 32 4 18
11 39 16 48 25 44 100 217 104 240 0 3 8 28 18 55 19 57 72 279 81 340 4 22 8
47 11 55 2 8 7 42 10 75 4 32 8 62 10 65 2 3 6 39 10 80 11 120 15 160 22 240
10 102 9 637 0 730 -24 230 -60 340 -115 348 -21 3 -86 -27 -126 -58 -33 -26
-159 -154 -211 -214 -107 -125 -112 -132 -177 -221 -4 -5 -21 -26 -38 -45 -16
-19 -30 -40 -30 -46 0 -7 -4 -14 -9 -16 -17 -6 -291 -410 -291 -429 0 -5 -7
-12 -15 -15 -8 -4 -15 -10 -15 -15 0 -5 -12 -28 -27 -52 -56 -89 -195 -320
-225 -375 -34 -62 -46 -83 -84 -152 -71 -125 -264 -524 -264 -544 0 -3 -11
-29 -23 -58 -13 -29 -30 -69 -37 -88 -7 -19 -18 -48 -25 -65 -35 -84 -155
-418 -155 -431 0 -5 -11 -38 -24 -74 -24 -65 -79 -241 -78 -250 0 -3 -4 -12
-8 -20 -4 -8 -11 -33 -14 -54 -4 -22 -13 -62 -21 -90 -8 -28 -17 -66 -20 -84
-3 -18 -12 -63 -19 -100 -8 -37 -17 -85 -20 -107 -4 -22 -8 -51 -11 -65 -23
-148 -32 -274 -30 -420 4 -209 35 -309 110 -347 17 -9 32 -19 35 -22 3 -4 23
-18 45 -31 102 -62 229 -195 303 -319 59 -97 114 -240 127 -326 9 -63 13 -90
15 -90 1 0 2 -39 3 -87 2 -49 0 -88 -3 -88 -3 0 -5 -14 -4 -31 1 -50 -15 -127
-48 -224 -50 -151 -127 -274 -242 -390 -98 -99 -155 -139 -276 -196 -36 -17
-74 -34 -85 -40 -29 -13 -162 -46 -225 -55 -124 -17 -280 -5 -406 32 -172 49
-307 128 -434 254 -199 196 -306 453 -303 730 1 71 16 205 23 205 1 0 3 11 6
25 13 73 73 216 124 295 11 17 26 42 35 57 9 16 20 28 25 28 6 0 10 4 10 9 0
13 106 121 165 168 28 22 79 57 114 78 55 33 97 78 101 110 1 6 6 16 12 23 6
6 8 12 6 12 -3 0 1 26 8 57 9 40 12 109 9 233 -4 161 -6 202 -20 285 -2 17 -7
53 -10 80 -4 28 -8 57 -10 65 -3 8 -7 32 -11 54 -3 21 -8 48 -10 60 -6 23 -32
162 -41 211 -3 16 -16 68 -30 115 -14 47 -28 97 -31 113 -2 15 -8 27 -11 27
-4 0 -8 6 -9 13 -1 22 -10 51 -66 212 -31 88 -58 167 -60 175 -2 8 -22 61 -44
117 -22 56 -37 104 -34 107 3 3 0 6 -6 6 -7 0 -12 6 -12 14 0 12 -82 213 -141
343 -56 127 -182 368 -289 555 -35 62 -70 122 -76 133 -49 89 -233 384 -266
426 -15 20 -28 40 -28 43 0 7 -40 66 -51 76 -3 3 -16 23 -29 45 -13 22 -26 42
-29 45 -4 3 -22 28 -40 55 -19 28 -37 52 -41 55 -3 3 -17 23 -32 45 -15 22
-39 53 -53 69 -14 16 -25 32 -25 35 0 3 -15 22 -33 42 -17 20 -48 56 -67 80
-69 86 -216 232 -273 271 -69 47 -116 58 -141 33z"/>
</g>
</svg>
